<svg width="452" height="152" viewBox="0 0 452 152" fill="none" xmlns="http://www.w3.org/2000/svg">
<path d="M186.263 123.469V27.5423H235.631C253.492 27.5423 264.463 38.513 264.463 54.9021V56.24C264.463 68.883 257.907 77.5792 246.067 80.255C252.02 81.9943 255.566 86.7438 257.773 95.6407L260.516 107.147C262.59 115.441 264.931 120.525 267.941 122.8V123.469H249.345C247.539 119.723 246.401 115.241 244.863 108.016L243.057 99.1861C241.05 89.5533 236.434 85.4728 227.671 85.4728H201.917V123.469H186.263ZM231.685 74.1676C242.321 74.1676 248.81 67.6789 248.81 57.3103V55.9724C248.81 45.7376 242.321 39.2488 231.685 39.2488H201.917V74.1676H231.685Z" fill="#191412"/>
<path d="M285.098 151.765C281.285 151.765 277.673 151.364 276.402 151.163V138.988C277.874 139.189 281.419 139.456 283.627 139.456C291.386 139.456 295.199 136.379 297.808 130.024L300.35 123.736L272.589 54.969H288.376L308.244 108.083L327.911 54.969H343.43L311.254 134.439C306.638 145.945 299.882 151.765 285.098 151.765Z" fill="#191412"/>
<path d="M353.028 123.469V27.5423H367.678V123.469H353.028Z" fill="#191412"/>
<path d="M416.142 125.743C393.665 125.743 380.888 112.899 380.888 90.2892V88.1485C380.888 65.4714 393.665 52.6946 416.142 52.6946C438.685 52.6946 451.462 65.4714 451.462 88.1485V90.2892C451.462 112.899 438.685 125.743 416.142 125.743ZM416.208 114.906C428.45 114.906 436.477 106.879 436.477 90.9581V87.4796C436.477 71.5588 428.45 63.5314 416.208 63.5314C403.9 63.5314 395.873 71.5588 395.873 87.4796V90.9581C395.873 106.879 403.9 114.906 416.208 114.906Z" fill="#191412"/>
<path d="M135.553 125.712C141.026 120.099 139.239 115.693 129.823 119.136C112.145 125.602 78.651 124.786 64.3354 110.47C43.318 89.4525 55.5959 42.0107 31.6433 42.0107C7.6907 42.0107 -21.3084 114.03 23.2275 141.875C65.3727 168.218 127.792 133.679 135.561 125.72L135.553 125.712Z" fill="#FF8B2B"/>
<path d="M3.07486 25.903C-2.39835 31.5159 -0.610727 35.9224 8.80553 32.4796C26.4831 26.0133 59.977 26.8299 74.2927 41.1455C95.3101 62.1629 83.0321 109.605 106.985 109.605C130.937 109.605 159.937 37.585 115.401 9.74082C73.2554 -16.5953 10.8359 17.9433 3.07486 25.903Z" fill="#FF8B2B"/>
</svg>
