<svg width="1039" height="152" viewBox="0 0 1039 152" fill="none" xmlns="http://www.w3.org/2000/svg">
<path d="M186.263 27.5423H235.631C241.518 27.5423 246.624 28.6795 250.95 30.9539C255.321 33.2283 258.665 36.4393 260.984 40.5867C263.303 44.6896 264.463 49.4614 264.463 54.9021V56.24C264.463 62.5726 262.857 67.835 259.646 72.027C256.48 76.1745 251.954 78.9171 246.067 80.255C249.01 81.1023 251.418 82.7747 253.291 85.2721C255.164 87.7249 256.658 91.1811 257.773 95.6407L260.516 107.147C261.542 111.339 262.657 114.728 263.861 117.314C265.109 119.856 266.47 121.685 267.941 122.8V123.469H249.345C248.497 121.685 247.739 119.656 247.07 117.381C246.446 115.062 245.71 111.941 244.863 108.016L243.057 99.1861C242.075 94.3697 240.359 90.8912 237.906 88.7506C235.453 86.5654 232.041 85.4728 227.671 85.4728H201.917V123.469H186.263V27.5423ZM231.685 74.1676C236.992 74.1676 241.161 72.6737 244.194 69.6857C247.271 66.6532 248.81 62.528 248.81 57.3103V55.9724C248.81 50.8438 247.271 46.7856 244.194 43.7976C241.161 40.7651 236.992 39.2488 231.685 39.2488H201.917V74.1676H231.685Z" fill="#191412"/>
<path d="M285.098 151.765C281.843 151.765 278.944 151.564 276.402 151.163V138.988C277.339 139.122 278.52 139.233 279.947 139.323C281.375 139.412 282.601 139.456 283.627 139.456C287.417 139.456 290.383 138.698 292.524 137.182C294.709 135.666 296.47 133.28 297.808 130.024L300.35 123.736L272.589 54.969H288.376L308.244 108.083L327.911 54.969H343.43L311.254 134.439C309.649 138.453 307.753 141.709 305.568 144.206C303.383 146.703 300.64 148.576 297.34 149.825C294.04 151.118 289.959 151.765 285.098 151.765Z" fill="#191412"/>
<path d="M353.028 27.5423H367.678V123.469H353.028V27.5423Z" fill="#191412"/>
<path d="M416.142 125.743C408.694 125.743 402.317 124.361 397.01 121.596C391.747 118.831 387.734 114.795 384.969 109.488C382.248 104.181 380.888 97.7813 380.888 90.2892V88.1485C380.888 80.6118 382.248 74.2122 384.969 68.9499C387.734 63.6429 391.747 59.607 397.01 56.842C402.317 54.0771 408.694 52.6946 416.142 52.6946C423.634 52.6946 430.011 54.0771 435.273 56.842C440.58 59.607 444.594 63.6429 447.314 68.9499C450.079 74.2122 451.462 80.6118 451.462 88.1485V90.2892C451.462 97.7813 450.079 104.181 447.314 109.488C444.594 114.795 440.58 118.831 435.273 121.596C430.011 124.361 423.634 125.743 416.142 125.743ZM416.208 114.906C422.496 114.906 427.447 112.877 431.059 108.819C434.671 104.716 436.477 98.7624 436.477 90.9581V87.4796C436.477 79.6753 434.671 73.744 431.059 69.6857C427.447 65.5829 422.496 63.5314 416.208 63.5314C409.92 63.5314 404.948 65.5829 401.291 69.6857C397.679 73.744 395.873 79.6753 395.873 87.4796V90.9581C395.873 98.7624 397.679 104.716 401.291 108.819C404.948 112.877 409.92 114.906 416.208 114.906Z" fill="#191412"/>
<path d="M475.977 39.3826H444.002V27.5423H523.539V39.3826H491.564V123.469H475.977V39.3826Z" fill="#FF8B2B"/>
<path d="M526.247 54.969H540.295V69.0168C542.078 63.9774 544.821 60.2536 548.523 57.8454C552.269 55.4372 556.951 54.2331 562.57 54.2331C565.157 54.2331 567.097 54.4115 568.39 54.7683V67.1437C566.473 66.787 564.131 66.6086 561.366 66.6086C554.499 66.6086 549.37 68.2586 545.981 71.5588C542.591 74.8143 540.897 79.7422 540.897 86.3424V123.469H526.247V54.969Z" fill="#FF8B2B"/>
<path d="M597.254 125.542C589.717 125.542 583.964 123.825 579.995 120.392C576.026 116.958 574.041 112.097 574.041 105.809V105.273C574.041 99.7881 575.625 95.5069 578.791 92.4298C581.957 89.308 587.064 87.1228 594.11 85.8741L623.343 80.7233V75.5724C623.343 67.2775 618.325 63.1301 608.291 63.1301C603.029 63.1301 599.06 64.2896 596.384 66.6086C593.708 68.883 592.237 72.2946 591.969 76.8434H577.52C577.966 60.7442 588.401 52.6946 608.826 52.6946C618.95 52.6946 626.331 54.5676 630.969 58.3137C635.651 62.0152 637.992 67.3444 637.992 74.3014V110.625C637.992 112.899 639.308 114.037 641.939 114.037C642.876 114.037 643.701 113.947 644.414 113.769V123.603C641.828 124.271 639.152 124.606 636.387 124.606C632.016 124.606 628.739 123.669 626.553 121.796C624.413 119.923 623.343 117.248 623.343 113.769V111.026C621.202 115.664 617.902 119.254 613.442 121.796C608.983 124.294 603.586 125.542 597.254 125.542ZM588.825 105.14C588.825 108.395 589.985 110.959 592.304 112.833C594.623 114.661 598.079 115.575 602.672 115.575C606.864 115.575 610.521 114.817 613.643 113.301C616.765 111.74 619.15 109.599 620.801 106.879C622.495 104.159 623.343 101.037 623.343 97.5137V90.1554L599.461 94.5035C595.849 95.1278 593.173 96.2873 591.434 97.982C589.695 99.6767 588.825 101.929 588.825 104.738V105.14Z" fill="#FF8B2B"/>
<path d="M705.186 80.0543C705.186 74.792 703.826 70.756 701.106 67.9465C698.385 65.0923 694.55 63.6652 689.6 63.6652C685.898 63.6652 682.621 64.4457 679.767 66.0065C676.957 67.5228 674.772 69.708 673.211 72.5622C671.65 75.4163 670.87 78.761 670.87 82.5963V123.469H656.22V54.969H670.87V67.4113C673.01 62.7733 676.266 59.1833 680.636 56.6413C685.007 54.0548 690.18 52.7615 696.156 52.7615C703.737 52.7615 709.579 54.8129 713.682 58.9157C717.829 63.0186 719.903 68.8607 719.903 76.442V123.469H705.186V80.0543Z" fill="#FF8B2B"/>
<path d="M765.423 125.743C754.23 125.743 746.046 123.692 740.873 119.589C735.7 115.441 733.046 109.577 732.913 101.996H747.429C747.741 106.455 749.369 109.867 752.312 112.23C755.255 114.594 759.871 115.776 766.159 115.776C771.957 115.776 776.238 114.795 779.003 112.833C781.812 110.826 783.217 108.128 783.217 104.738V104.27C783.217 101.817 782.459 99.8773 780.943 98.4503C779.426 96.9786 777.219 96.0867 774.32 95.7745L751.71 93.4332C739.714 92.1399 733.715 86.1863 733.715 75.5724V74.9035C733.715 68.0357 736.257 62.6172 741.341 58.6482C746.425 54.6791 754.118 52.6946 764.42 52.6946C784.131 52.6946 794.21 60.0084 794.656 74.6359H780.474C780.252 70.7114 778.869 67.7235 776.327 65.6721C773.785 63.6206 769.705 62.5949 764.085 62.5949C758.734 62.5949 754.765 63.576 752.178 65.5383C749.592 67.5005 748.298 70.1986 748.298 73.6325V74.0339C748.298 76.6204 749.034 78.6496 750.506 80.1212C751.978 81.5483 754.23 82.4179 757.262 82.7301L780.006 85.0714C785.893 85.6512 790.33 87.435 793.318 90.423C796.306 93.4109 797.8 97.536 797.8 102.798V103.467C797.8 110.291 795.169 115.709 789.907 119.723C784.689 123.736 776.528 125.743 765.423 125.743Z" fill="#FF8B2B"/>
<path d="M810.944 27.5423H825.593V123.469H810.944V27.5423Z" fill="#FF8B2B"/>
<path d="M862.016 125.542C854.479 125.542 848.726 123.825 844.757 120.392C840.788 116.958 838.804 112.097 838.804 105.809V105.273C838.804 99.7881 840.387 95.5069 843.553 92.4298C846.719 89.308 851.826 87.1228 858.872 85.8741L888.105 80.7233V75.5724C888.105 67.2775 883.088 63.1301 873.054 63.1301C867.791 63.1301 863.822 64.2896 861.146 66.6086C858.471 68.883 856.999 72.2946 856.731 76.8434H842.282C842.728 60.7442 853.164 52.6946 873.589 52.6946C883.712 52.6946 891.093 54.5676 895.731 58.3137C900.413 62.0152 902.755 67.3444 902.755 74.3014V110.625C902.755 112.899 904.07 114.037 906.701 114.037C907.638 114.037 908.463 113.947 909.176 113.769V123.603C906.59 124.271 903.914 124.606 901.149 124.606C896.779 124.606 893.501 123.669 891.316 121.796C889.175 119.923 888.105 117.248 888.105 113.769V111.026C885.964 115.664 882.664 119.254 878.204 121.796C873.745 124.294 868.349 125.542 862.016 125.542ZM853.587 105.14C853.587 108.395 854.747 110.959 857.066 112.833C859.385 114.661 862.841 115.575 867.434 115.575C871.626 115.575 875.283 114.817 878.405 113.301C881.527 111.74 883.913 109.599 885.563 106.879C887.257 104.159 888.105 101.037 888.105 97.5137V90.1554L864.224 94.5035C860.611 95.1278 857.935 96.2873 856.196 97.982C854.457 99.6767 853.587 101.929 853.587 104.738V105.14Z" fill="#FF8B2B"/>
<path d="M949.813 124.472C944.328 124.472 939.935 123.848 936.635 122.599C933.335 121.35 930.949 119.5 929.477 117.047C928.05 114.594 927.337 111.472 927.337 107.682V65.4045H912.955V54.969H927.337V34.7669H941.987V54.969H962.456V65.4045H941.987V104.805C941.987 107.303 942.946 109.265 944.863 110.692C946.781 112.074 949.791 112.766 953.894 112.766C956.614 112.766 959.491 112.476 962.523 111.896V123.268C958.376 124.071 954.139 124.472 949.813 124.472Z" fill="#FF8B2B"/>
<path d="M1005.03 125.743C997.452 125.743 990.985 124.361 985.634 121.596C980.327 118.831 976.291 114.817 973.526 109.555C970.806 104.248 969.445 97.8259 969.445 90.2892V88.1485C969.445 80.5672 970.806 74.1453 973.526 68.883C976.291 63.576 980.305 59.5624 985.567 56.842C990.829 54.0771 997.229 52.6946 1004.77 52.6946C1015.78 52.6946 1024.1 55.6602 1029.72 61.5915C1035.34 67.5228 1038.15 76.1968 1038.15 87.6134V92.4298H984.43C984.564 99.9219 986.459 105.653 990.116 109.622C993.773 113.546 998.745 115.508 1005.03 115.508C1008.6 115.508 1011.68 114.884 1014.26 113.635C1016.85 112.387 1018.86 110.714 1020.29 108.618C1021.76 106.478 1022.65 104.092 1022.96 101.461H1037.61C1037.25 105.965 1035.83 110.045 1033.33 113.702C1030.88 117.359 1027.26 120.28 1022.49 122.465C1017.72 124.651 1011.9 125.743 1005.03 125.743ZM1023.3 82.9977V82.9308C1023.03 76.063 1021.33 71.0013 1018.21 67.7458C1015.09 64.4903 1010.59 62.8625 1004.7 62.8625C998.767 62.8625 994.063 64.5349 990.584 67.8796C987.106 71.2243 985.099 76.2637 984.564 82.9977H1023.3Z" fill="#FF8B2B"/>
<path d="M135.553 125.712C141.026 120.099 139.239 115.693 129.823 119.136C112.145 125.602 78.651 124.786 64.3354 110.47C43.318 89.4525 55.5959 42.0107 31.6433 42.0107C7.6907 42.0107 -21.3084 114.03 23.2275 141.875C65.3727 168.218 127.792 133.679 135.561 125.72L135.553 125.712Z" fill="#FF8B2B"/>
<path d="M3.07486 25.903C-2.39835 31.5159 -0.610727 35.9224 8.80553 32.4796C26.4831 26.0133 59.977 26.8299 74.2927 41.1455C95.3101 62.1629 83.0321 109.605 106.985 109.605C130.937 109.605 159.937 37.585 115.401 9.74082C73.2554 -16.5953 10.8359 17.9433 3.07486 25.903Z" fill="#FF8B2B"/>
</svg>
